<mxfile host="app.diagrams.net" agent="Mozilla/5.0 (Windows NT 10.0; Win64; x64) AppleWebKit/537.36 (KHTML, like Gecko) Chrome/129.0.0.0 Safari/537.36" version="24.7.17">
  <diagram name="Page-1" id="KZKK0PnLbVWSQO52COz1">
    <mxGraphModel dx="3183" dy="1264" grid="1" gridSize="10" guides="1" tooltips="1" connect="1" arrows="1" fold="1" page="1" pageScale="1" pageWidth="850" pageHeight="1100" math="0" shadow="0">
      <root>
        <mxCell id="0" />
        <mxCell id="1" parent="0" />
        <mxCell id="Kb2x6qJlIqM13PmmgheF-1" value="KONFERENCIJA" style="rounded=0;whiteSpace=wrap;html=1;fontStyle=1;align=center;" vertex="1" parent="1">
          <mxGeometry x="-504.5" y="80" width="120" height="40" as="geometry" />
        </mxCell>
        <mxCell id="Kb2x6qJlIqM13PmmgheF-2" value="ime" style="ellipse;whiteSpace=wrap;html=1;fontStyle=1;align=center;" vertex="1" parent="1">
          <mxGeometry x="-564.5" y="10" width="80" height="40" as="geometry" />
        </mxCell>
        <mxCell id="Kb2x6qJlIqM13PmmgheF-3" value="region" style="ellipse;whiteSpace=wrap;html=1;fontStyle=1;align=center;" vertex="1" parent="1">
          <mxGeometry x="-424.5" y="10" width="80" height="40" as="geometry" />
        </mxCell>
        <mxCell id="Kb2x6qJlIqM13PmmgheF-4" value="" style="endArrow=none;html=1;rounded=0;exitX=0.5;exitY=1;exitDx=0;exitDy=0;entryX=0;entryY=0;entryDx=0;entryDy=0;fontStyle=1;align=center;" edge="1" parent="1" source="Kb2x6qJlIqM13PmmgheF-2" target="Kb2x6qJlIqM13PmmgheF-1">
          <mxGeometry width="50" height="50" relative="1" as="geometry">
            <mxPoint x="-234.5" y="230" as="sourcePoint" />
            <mxPoint x="-184.5" y="180" as="targetPoint" />
          </mxGeometry>
        </mxCell>
        <mxCell id="Kb2x6qJlIqM13PmmgheF-5" value="" style="endArrow=none;html=1;rounded=0;exitX=0.5;exitY=1;exitDx=0;exitDy=0;entryX=0.75;entryY=0;entryDx=0;entryDy=0;fontStyle=1;align=center;" edge="1" parent="1" source="Kb2x6qJlIqM13PmmgheF-3" target="Kb2x6qJlIqM13PmmgheF-1">
          <mxGeometry width="50" height="50" relative="1" as="geometry">
            <mxPoint x="-514.5" y="60" as="sourcePoint" />
            <mxPoint x="-474.5" y="90" as="targetPoint" />
          </mxGeometry>
        </mxCell>
        <mxCell id="Kb2x6qJlIqM13PmmgheF-8" value="" style="endArrow=none;html=1;rounded=0;entryX=0.5;entryY=1;entryDx=0;entryDy=0;exitX=0.5;exitY=0;exitDx=0;exitDy=0;fontStyle=1;align=center;" edge="1" parent="1" source="Kb2x6qJlIqM13PmmgheF-19" target="Kb2x6qJlIqM13PmmgheF-1">
          <mxGeometry width="50" height="50" relative="1" as="geometry">
            <mxPoint x="-484.5" y="150" as="sourcePoint" />
            <mxPoint x="-474.5" y="90" as="targetPoint" />
          </mxGeometry>
        </mxCell>
        <mxCell id="Kb2x6qJlIqM13PmmgheF-10" value="broj" style="ellipse;whiteSpace=wrap;html=1;fontStyle=1;align=center;" vertex="1" parent="1">
          <mxGeometry x="-624.5" y="290" width="80" height="40" as="geometry" />
        </mxCell>
        <mxCell id="Kb2x6qJlIqM13PmmgheF-11" value="od" style="ellipse;whiteSpace=wrap;html=1;fontStyle=1;align=center;" vertex="1" parent="1">
          <mxGeometry x="-324.5" y="310" width="80" height="40" as="geometry" />
        </mxCell>
        <mxCell id="Kb2x6qJlIqM13PmmgheF-12" value="do" style="ellipse;whiteSpace=wrap;html=1;fontStyle=1;align=center;" vertex="1" parent="1">
          <mxGeometry x="-344.5" y="250" width="80" height="40" as="geometry" />
        </mxCell>
        <mxCell id="Kb2x6qJlIqM13PmmgheF-13" value="" style="endArrow=none;html=1;rounded=0;exitX=1;exitY=0.5;exitDx=0;exitDy=0;entryX=0;entryY=0.5;entryDx=0;entryDy=0;fontStyle=1;align=center;" edge="1" parent="1" source="Kb2x6qJlIqM13PmmgheF-10" target="Kb2x6qJlIqM13PmmgheF-17">
          <mxGeometry width="50" height="50" relative="1" as="geometry">
            <mxPoint x="-234.5" y="330" as="sourcePoint" />
            <mxPoint x="-534.5" y="190" as="targetPoint" />
          </mxGeometry>
        </mxCell>
        <mxCell id="Kb2x6qJlIqM13PmmgheF-14" value="" style="endArrow=none;html=1;rounded=0;exitX=0.5;exitY=1;exitDx=0;exitDy=0;fontStyle=1;align=center;" edge="1" parent="1" source="Kb2x6qJlIqM13PmmgheF-17" target="Kb2x6qJlIqM13PmmgheF-11">
          <mxGeometry width="50" height="50" relative="1" as="geometry">
            <mxPoint x="-484.5" y="200" as="sourcePoint" />
            <mxPoint x="-184.5" y="280" as="targetPoint" />
            <Array as="points">
              <mxPoint x="-354.5" y="340" />
            </Array>
          </mxGeometry>
        </mxCell>
        <mxCell id="Kb2x6qJlIqM13PmmgheF-15" value="" style="endArrow=none;html=1;rounded=0;exitX=0;exitY=1;exitDx=0;exitDy=0;entryX=1;entryY=0.25;entryDx=0;entryDy=0;fontStyle=1;align=center;" edge="1" parent="1" source="Kb2x6qJlIqM13PmmgheF-12" target="Kb2x6qJlIqM13PmmgheF-17">
          <mxGeometry width="50" height="50" relative="1" as="geometry">
            <mxPoint x="-234.5" y="330" as="sourcePoint" />
            <mxPoint x="-454.5" y="180" as="targetPoint" />
          </mxGeometry>
        </mxCell>
        <mxCell id="Kb2x6qJlIqM13PmmgheF-17" value="ODDRZUVANJE" style="rounded=0;whiteSpace=wrap;html=1;fontStyle=1;align=center;" vertex="1" parent="1">
          <mxGeometry x="-504.5" y="300" width="120" height="40" as="geometry" />
        </mxCell>
        <mxCell id="Kb2x6qJlIqM13PmmgheF-20" value="" style="endArrow=none;html=1;rounded=0;entryX=0.5;entryY=1;entryDx=0;entryDy=0;exitX=0.5;exitY=0;exitDx=0;exitDy=0;fontStyle=1;align=center;" edge="1" parent="1" source="Kb2x6qJlIqM13PmmgheF-17" target="Kb2x6qJlIqM13PmmgheF-19">
          <mxGeometry width="50" height="50" relative="1" as="geometry">
            <mxPoint x="-444" y="300" as="sourcePoint" />
            <mxPoint x="-454.5" y="120" as="targetPoint" />
          </mxGeometry>
        </mxCell>
        <mxCell id="Kb2x6qJlIqM13PmmgheF-19" value="ima" style="rhombus;whiteSpace=wrap;html=1;fontStyle=1;align=center;" vertex="1" parent="1">
          <mxGeometry x="-474.5" y="170" width="60" height="65" as="geometry" />
        </mxCell>
        <mxCell id="Kb2x6qJlIqM13PmmgheF-21" value="M" style="text;html=1;align=center;verticalAlign=middle;whiteSpace=wrap;rounded=0;fillColor=none;fontStyle=1" vertex="1" parent="1">
          <mxGeometry x="-454.5" y="235" width="60" height="30" as="geometry" />
        </mxCell>
        <mxCell id="Kb2x6qJlIqM13PmmgheF-22" style="edgeStyle=orthogonalEdgeStyle;rounded=0;orthogonalLoop=1;jettySize=auto;html=1;exitX=0.5;exitY=1;exitDx=0;exitDy=0;strokeWidth=1;fontStyle=1;align=center;" edge="1" parent="1" source="Kb2x6qJlIqM13PmmgheF-21" target="Kb2x6qJlIqM13PmmgheF-21">
          <mxGeometry relative="1" as="geometry" />
        </mxCell>
        <mxCell id="Kb2x6qJlIqM13PmmgheF-23" value="1" style="text;html=1;align=center;verticalAlign=middle;whiteSpace=wrap;rounded=0;fontStyle=1" vertex="1" parent="1">
          <mxGeometry x="-455" y="150" width="60" height="30" as="geometry" />
        </mxCell>
        <mxCell id="Kb2x6qJlIqM13PmmgheF-24" value="" style="endArrow=none;html=1;rounded=0;entryX=0.5;entryY=1;entryDx=0;entryDy=0;exitX=0.5;exitY=0;exitDx=0;exitDy=0;fontStyle=1;align=center;" edge="1" parent="1" source="Kb2x6qJlIqM13PmmgheF-51" target="Kb2x6qJlIqM13PmmgheF-17">
          <mxGeometry width="50" height="50" relative="1" as="geometry">
            <mxPoint x="-592.3699999999999" y="352.30999999999995" as="sourcePoint" />
            <mxPoint x="-304.5" y="300" as="targetPoint" />
          </mxGeometry>
        </mxCell>
        <mxCell id="Kb2x6qJlIqM13PmmgheF-28" value="NAUCNIK" style="rounded=0;whiteSpace=wrap;html=1;fontStyle=1;align=center;" vertex="1" parent="1">
          <mxGeometry x="-507" y="680" width="120" height="40" as="geometry" />
        </mxCell>
        <mxCell id="Kb2x6qJlIqM13PmmgheF-29" value="kontakt" style="ellipse;whiteSpace=wrap;html=1;fontStyle=1;align=center;" vertex="1" parent="1">
          <mxGeometry x="-487" y="785" width="80" height="40" as="geometry" />
        </mxCell>
        <mxCell id="Kb2x6qJlIqM13PmmgheF-30" value="" style="endArrow=none;html=1;rounded=0;exitX=0.5;exitY=0;exitDx=0;exitDy=0;entryX=0.5;entryY=1;entryDx=0;entryDy=0;fontStyle=1;align=center;" edge="1" parent="1" source="Kb2x6qJlIqM13PmmgheF-29" target="Kb2x6qJlIqM13PmmgheF-28">
          <mxGeometry width="50" height="50" relative="1" as="geometry">
            <mxPoint x="-367" y="640" as="sourcePoint" />
            <mxPoint x="-317" y="590" as="targetPoint" />
          </mxGeometry>
        </mxCell>
        <mxCell id="Kb2x6qJlIqM13PmmgheF-31" value="ime" style="ellipse;whiteSpace=wrap;html=1;fontStyle=1;align=center;" vertex="1" parent="1">
          <mxGeometry x="-647" y="895" width="80" height="40" as="geometry" />
        </mxCell>
        <mxCell id="Kb2x6qJlIqM13PmmgheF-32" value="prezime" style="ellipse;whiteSpace=wrap;html=1;fontStyle=1;align=center;" vertex="1" parent="1">
          <mxGeometry x="-507" y="900" width="80" height="40" as="geometry" />
        </mxCell>
        <mxCell id="Kb2x6qJlIqM13PmmgheF-33" value="email" style="ellipse;whiteSpace=wrap;html=1;fontStyle=1;align=center;" vertex="1" parent="1">
          <mxGeometry x="-387" y="890" width="80" height="40" as="geometry" />
        </mxCell>
        <mxCell id="Kb2x6qJlIqM13PmmgheF-34" value="telefon" style="ellipse;whiteSpace=wrap;html=1;fontStyle=1;align=center;" vertex="1" parent="1">
          <mxGeometry x="-287" y="855" width="80" height="40" as="geometry" />
        </mxCell>
        <mxCell id="Kb2x6qJlIqM13PmmgheF-35" value="" style="endArrow=none;html=1;rounded=0;exitX=0;exitY=1;exitDx=0;exitDy=0;entryX=0.5;entryY=0;entryDx=0;entryDy=0;fontStyle=1;align=center;" edge="1" parent="1" source="Kb2x6qJlIqM13PmmgheF-29" target="Kb2x6qJlIqM13PmmgheF-31">
          <mxGeometry width="50" height="50" relative="1" as="geometry">
            <mxPoint x="-367" y="640" as="sourcePoint" />
            <mxPoint x="-607" y="890" as="targetPoint" />
          </mxGeometry>
        </mxCell>
        <mxCell id="Kb2x6qJlIqM13PmmgheF-36" value="" style="endArrow=none;html=1;rounded=0;exitX=0.5;exitY=1;exitDx=0;exitDy=0;entryX=0.5;entryY=0;entryDx=0;entryDy=0;fontStyle=1;align=center;" edge="1" parent="1" source="Kb2x6qJlIqM13PmmgheF-29" target="Kb2x6qJlIqM13PmmgheF-32">
          <mxGeometry width="50" height="50" relative="1" as="geometry">
            <mxPoint x="-545" y="724" as="sourcePoint" />
            <mxPoint x="-584" y="760" as="targetPoint" />
          </mxGeometry>
        </mxCell>
        <mxCell id="Kb2x6qJlIqM13PmmgheF-37" value="" style="endArrow=none;html=1;rounded=0;entryX=0;entryY=0;entryDx=0;entryDy=0;exitX=1;exitY=1;exitDx=0;exitDy=0;fontStyle=1;align=center;" edge="1" parent="1" source="Kb2x6qJlIqM13PmmgheF-29" target="Kb2x6qJlIqM13PmmgheF-33">
          <mxGeometry width="50" height="50" relative="1" as="geometry">
            <mxPoint x="-487" y="712" as="sourcePoint" />
            <mxPoint x="-487" y="760" as="targetPoint" />
          </mxGeometry>
        </mxCell>
        <mxCell id="Kb2x6qJlIqM13PmmgheF-38" value="" style="ellipse;whiteSpace=wrap;html=1;fillColor=none;fontStyle=1;align=center;" vertex="1" parent="1">
          <mxGeometry x="-292" y="850" width="90" height="50" as="geometry" />
        </mxCell>
        <mxCell id="Kb2x6qJlIqM13PmmgheF-39" value="" style="endArrow=none;html=1;rounded=0;entryX=1;entryY=0.5;entryDx=0;entryDy=0;fontStyle=1;align=center;" edge="1" parent="1" source="Kb2x6qJlIqM13PmmgheF-38" target="Kb2x6qJlIqM13PmmgheF-29">
          <mxGeometry width="50" height="50" relative="1" as="geometry">
            <mxPoint x="-367" y="640" as="sourcePoint" />
            <mxPoint x="-317" y="590" as="targetPoint" />
            <Array as="points" />
          </mxGeometry>
        </mxCell>
        <mxCell id="Kb2x6qJlIqM13PmmgheF-46" value="TRUD" style="rounded=0;whiteSpace=wrap;html=1;fontStyle=1;align=center;" vertex="1" parent="1">
          <mxGeometry x="-504.5" y="490" width="120" height="40" as="geometry" />
        </mxCell>
        <mxCell id="Kb2x6qJlIqM13PmmgheF-47" value="oblast" style="ellipse;whiteSpace=wrap;html=1;fontStyle=1;align=center;" vertex="1" parent="1">
          <mxGeometry x="-326.5" y="440" width="62" height="30" as="geometry" />
        </mxCell>
        <mxCell id="Kb2x6qJlIqM13PmmgheF-48" value="naslov" style="ellipse;whiteSpace=wrap;html=1;fontStyle=1;align=center;" vertex="1" parent="1">
          <mxGeometry x="-391.5" y="420" width="67" height="30" as="geometry" />
        </mxCell>
        <mxCell id="Kb2x6qJlIqM13PmmgheF-49" value="" style="endArrow=none;html=1;rounded=0;entryX=0;entryY=0.5;entryDx=0;entryDy=0;exitX=0.75;exitY=0;exitDx=0;exitDy=0;fontStyle=1;align=center;" edge="1" parent="1" source="Kb2x6qJlIqM13PmmgheF-46" target="Kb2x6qJlIqM13PmmgheF-48">
          <mxGeometry width="50" height="50" relative="1" as="geometry">
            <mxPoint x="-354.5" y="590" as="sourcePoint" />
            <mxPoint x="-304.5" y="540" as="targetPoint" />
          </mxGeometry>
        </mxCell>
        <mxCell id="Kb2x6qJlIqM13PmmgheF-50" value="" style="endArrow=none;html=1;rounded=0;entryX=0;entryY=0.5;entryDx=0;entryDy=0;exitX=1;exitY=0.25;exitDx=0;exitDy=0;fontStyle=1;align=center;" edge="1" parent="1" source="Kb2x6qJlIqM13PmmgheF-46" target="Kb2x6qJlIqM13PmmgheF-47">
          <mxGeometry width="50" height="50" relative="1" as="geometry">
            <mxPoint x="-354.5" y="590" as="sourcePoint" />
            <mxPoint x="-304.5" y="540" as="targetPoint" />
          </mxGeometry>
        </mxCell>
        <mxCell id="Kb2x6qJlIqM13PmmgheF-52" value="" style="endArrow=none;html=1;rounded=0;entryX=0.5;entryY=1;entryDx=0;entryDy=0;exitX=0.5;exitY=0;exitDx=0;exitDy=0;fontStyle=1;align=center;" edge="1" parent="1" source="Kb2x6qJlIqM13PmmgheF-46" target="Kb2x6qJlIqM13PmmgheF-51">
          <mxGeometry width="50" height="50" relative="1" as="geometry">
            <mxPoint x="-434.5" y="480" as="sourcePoint" />
            <mxPoint x="-435.5" y="341" as="targetPoint" />
          </mxGeometry>
        </mxCell>
        <mxCell id="Kb2x6qJlIqM13PmmgheF-51" value="objaven" style="rhombus;whiteSpace=wrap;html=1;fontStyle=1;align=center;" vertex="1" parent="1">
          <mxGeometry x="-474.5" y="390" width="60" height="60" as="geometry" />
        </mxCell>
        <mxCell id="Kb2x6qJlIqM13PmmgheF-55" value="M" style="text;html=1;align=center;verticalAlign=middle;whiteSpace=wrap;rounded=0;fontStyle=1" vertex="1" parent="1">
          <mxGeometry x="-504.5" y="430" width="60" height="30" as="geometry" />
        </mxCell>
        <mxCell id="Kb2x6qJlIqM13PmmgheF-56" value="1" style="text;html=1;align=center;verticalAlign=middle;whiteSpace=wrap;rounded=0;fontStyle=1" vertex="1" parent="1">
          <mxGeometry x="-504.5" y="380" width="60" height="30" as="geometry" />
        </mxCell>
        <mxCell id="Kb2x6qJlIqM13PmmgheF-57" style="edgeStyle=orthogonalEdgeStyle;rounded=0;orthogonalLoop=1;jettySize=auto;html=1;exitX=0.5;exitY=1;exitDx=0;exitDy=0;fontStyle=1;align=center;" edge="1" parent="1" source="Kb2x6qJlIqM13PmmgheF-17" target="Kb2x6qJlIqM13PmmgheF-17">
          <mxGeometry relative="1" as="geometry" />
        </mxCell>
        <mxCell id="Kb2x6qJlIqM13PmmgheF-58" value="" style="endArrow=none;html=1;rounded=0;exitX=0.5;exitY=1;exitDx=0;exitDy=0;entryX=0.25;entryY=0;entryDx=0;entryDy=0;fontStyle=1;align=center;" edge="1" parent="1" source="Kb2x6qJlIqM13PmmgheF-60" target="Kb2x6qJlIqM13PmmgheF-28">
          <mxGeometry width="50" height="50" relative="1" as="geometry">
            <mxPoint x="-327" y="750" as="sourcePoint" />
            <mxPoint x="-277" y="700" as="targetPoint" />
          </mxGeometry>
        </mxCell>
        <mxCell id="Kb2x6qJlIqM13PmmgheF-61" value="koavtor" style="rhombus;whiteSpace=wrap;html=1;fontStyle=1;align=center;" vertex="1" parent="1">
          <mxGeometry x="-425" y="569" width="57.5" height="60" as="geometry" />
        </mxCell>
        <mxCell id="Kb2x6qJlIqM13PmmgheF-62" value="" style="endArrow=none;html=1;rounded=0;exitX=0.25;exitY=1;exitDx=0;exitDy=0;entryX=0.25;entryY=0;entryDx=0;entryDy=0;fontStyle=1;align=center;" edge="1" parent="1" source="Kb2x6qJlIqM13PmmgheF-46" target="Kb2x6qJlIqM13PmmgheF-60">
          <mxGeometry width="50" height="50" relative="1" as="geometry">
            <mxPoint x="-474" y="520" as="sourcePoint" />
            <mxPoint x="-477" y="680" as="targetPoint" />
          </mxGeometry>
        </mxCell>
        <mxCell id="Kb2x6qJlIqM13PmmgheF-60" value="prv" style="rhombus;whiteSpace=wrap;html=1;fontStyle=1;align=center;" vertex="1" parent="1">
          <mxGeometry x="-520" y="570" width="60" height="60" as="geometry" />
        </mxCell>
        <mxCell id="Kb2x6qJlIqM13PmmgheF-63" value="" style="endArrow=none;html=1;rounded=0;exitX=0.75;exitY=0;exitDx=0;exitDy=0;entryX=0.5;entryY=1;entryDx=0;entryDy=0;fontStyle=1;align=center;" edge="1" parent="1" source="Kb2x6qJlIqM13PmmgheF-28" target="Kb2x6qJlIqM13PmmgheF-61">
          <mxGeometry width="50" height="50" relative="1" as="geometry">
            <mxPoint x="-327" y="750" as="sourcePoint" />
            <mxPoint x="-277" y="700" as="targetPoint" />
          </mxGeometry>
        </mxCell>
        <mxCell id="Kb2x6qJlIqM13PmmgheF-64" value="" style="endArrow=none;html=1;rounded=0;exitX=0.75;exitY=1;exitDx=0;exitDy=0;entryX=0.5;entryY=0;entryDx=0;entryDy=0;fontStyle=1;align=center;" edge="1" parent="1" source="Kb2x6qJlIqM13PmmgheF-46" target="Kb2x6qJlIqM13PmmgheF-61">
          <mxGeometry width="50" height="50" relative="1" as="geometry">
            <mxPoint x="-407" y="690" as="sourcePoint" />
            <mxPoint x="-364" y="630" as="targetPoint" />
          </mxGeometry>
        </mxCell>
        <mxCell id="Kb2x6qJlIqM13PmmgheF-66" value="1" style="text;html=1;align=center;verticalAlign=middle;whiteSpace=wrap;rounded=0;fontStyle=1" vertex="1" parent="1">
          <mxGeometry x="-544.5" y="610" width="60" height="30" as="geometry" />
        </mxCell>
        <mxCell id="Kb2x6qJlIqM13PmmgheF-67" value="M" style="text;html=1;align=center;verticalAlign=middle;whiteSpace=wrap;rounded=0;fontStyle=1" vertex="1" parent="1">
          <mxGeometry x="-547" y="550" width="60" height="30" as="geometry" />
        </mxCell>
        <mxCell id="Kb2x6qJlIqM13PmmgheF-69" value="M" style="text;html=1;align=center;verticalAlign=middle;whiteSpace=wrap;rounded=0;fontStyle=1" vertex="1" parent="1">
          <mxGeometry x="-404.5" y="610" width="60" height="30" as="geometry" />
        </mxCell>
        <mxCell id="Kb2x6qJlIqM13PmmgheF-70" value="N" style="text;html=1;align=center;verticalAlign=middle;whiteSpace=wrap;rounded=0;fontStyle=1" vertex="1" parent="1">
          <mxGeometry x="-404.5" y="550" width="60" height="30" as="geometry" />
        </mxCell>
        <mxCell id="Kb2x6qJlIqM13PmmgheF-71" value="" style="rhombus;whiteSpace=wrap;html=1;" vertex="1" parent="1">
          <mxGeometry x="-704.5" y="480" width="60" height="60" as="geometry" />
        </mxCell>
        <mxCell id="Kb2x6qJlIqM13PmmgheF-73" value="" style="endArrow=none;html=1;rounded=0;exitX=0;exitY=0.75;exitDx=0;exitDy=0;entryX=0.5;entryY=1;entryDx=0;entryDy=0;fontStyle=1;align=center;" edge="1" parent="1" source="Kb2x6qJlIqM13PmmgheF-46" target="Kb2x6qJlIqM13PmmgheF-71">
          <mxGeometry width="50" height="50" relative="1" as="geometry">
            <mxPoint x="-494" y="500" as="sourcePoint" />
            <mxPoint x="-650" y="480" as="targetPoint" />
            <Array as="points">
              <mxPoint x="-600" y="540" />
              <mxPoint x="-630" y="540" />
            </Array>
          </mxGeometry>
        </mxCell>
        <mxCell id="Kb2x6qJlIqM13PmmgheF-74" value="referencira" style="text;html=1;align=center;verticalAlign=middle;whiteSpace=wrap;rounded=0;fontStyle=1" vertex="1" parent="1">
          <mxGeometry x="-644.5" y="450" width="80" height="30" as="geometry" />
        </mxCell>
        <mxCell id="Kb2x6qJlIqM13PmmgheF-75" value="M" style="text;html=1;align=center;verticalAlign=middle;whiteSpace=wrap;rounded=0;fontStyle=1" vertex="1" parent="1">
          <mxGeometry x="-740" y="470" width="60" height="30" as="geometry" />
        </mxCell>
        <mxCell id="Kb2x6qJlIqM13PmmgheF-76" value="N" style="text;html=1;align=center;verticalAlign=middle;whiteSpace=wrap;rounded=0;fontStyle=1" vertex="1" parent="1">
          <mxGeometry x="-740" y="515" width="60" height="30" as="geometry" />
        </mxCell>
        <mxCell id="Kb2x6qJlIqM13PmmgheF-77" value="&lt;span&gt;e referenciran&lt;/span&gt;" style="text;html=1;align=center;verticalAlign=middle;whiteSpace=wrap;rounded=0;fontStyle=1" vertex="1" parent="1">
          <mxGeometry x="-647" y="550" width="91" height="19" as="geometry" />
        </mxCell>
        <mxCell id="Kb2x6qJlIqM13PmmgheF-78" value="" style="endArrow=none;html=1;rounded=0;fontStyle=1;align=center;" edge="1" parent="1">
          <mxGeometry width="50" height="50" relative="1" as="geometry">
            <mxPoint x="-452" y="300" as="sourcePoint" />
            <mxPoint x="-450" y="230" as="targetPoint" />
          </mxGeometry>
        </mxCell>
        <mxCell id="Kb2x6qJlIqM13PmmgheF-82" value="" style="endArrow=none;html=1;rounded=0;entryX=0.559;entryY=1.026;entryDx=0;entryDy=0;entryPerimeter=0;exitX=0.621;exitY=0.101;exitDx=0;exitDy=0;exitPerimeter=0;fontStyle=1;align=center;" edge="1" parent="1" source="Kb2x6qJlIqM13PmmgheF-51" target="Kb2x6qJlIqM13PmmgheF-17">
          <mxGeometry width="50" height="50" relative="1" as="geometry">
            <mxPoint x="-437" y="390" as="sourcePoint" />
            <mxPoint x="-431" y="455" as="targetPoint" />
          </mxGeometry>
        </mxCell>
        <mxCell id="Kb2x6qJlIqM13PmmgheF-84" value="" style="endArrow=none;html=1;rounded=0;entryX=0.577;entryY=0.932;entryDx=0;entryDy=0;exitX=0.548;exitY=-0.015;exitDx=0;exitDy=0;entryPerimeter=0;exitPerimeter=0;fontStyle=1;align=center;" edge="1" parent="1" source="Kb2x6qJlIqM13PmmgheF-46" target="Kb2x6qJlIqM13PmmgheF-51">
          <mxGeometry width="50" height="50" relative="1" as="geometry">
            <mxPoint x="-434" y="500" as="sourcePoint" />
            <mxPoint x="-434" y="460" as="targetPoint" />
          </mxGeometry>
        </mxCell>
        <mxCell id="Kb2x6qJlIqM13PmmgheF-85" value="" style="endArrow=none;html=1;rounded=0;entryX=0.966;entryY=0.684;entryDx=0;entryDy=0;entryPerimeter=0;fontStyle=1;align=center;" edge="1" parent="1" target="Kb2x6qJlIqM13PmmgheF-67">
          <mxGeometry width="50" height="50" relative="1" as="geometry">
            <mxPoint x="-470" y="530" as="sourcePoint" />
            <mxPoint x="-490" y="590" as="targetPoint" />
          </mxGeometry>
        </mxCell>
        <mxCell id="Kb2x6qJlIqM13PmmgheF-87" value="" style="endArrow=none;html=1;rounded=0;exitX=0.632;exitY=0.133;exitDx=0;exitDy=0;exitPerimeter=0;fontStyle=1;align=center;" edge="1" parent="1" source="Kb2x6qJlIqM13PmmgheF-71">
          <mxGeometry width="50" height="50" relative="1" as="geometry">
            <mxPoint x="-670" y="530" as="sourcePoint" />
            <mxPoint x="-505" y="500" as="targetPoint" />
          </mxGeometry>
        </mxCell>
        <mxCell id="Kb2x6qJlIqM13PmmgheF-88" value="" style="endArrow=none;html=1;rounded=0;exitX=0.575;exitY=0.07;exitDx=0;exitDy=0;exitPerimeter=0;entryX=-0.007;entryY=0.095;entryDx=0;entryDy=0;entryPerimeter=0;fontStyle=1;align=center;" edge="1" parent="1" source="Kb2x6qJlIqM13PmmgheF-71" target="Kb2x6qJlIqM13PmmgheF-46">
          <mxGeometry width="50" height="50" relative="1" as="geometry">
            <mxPoint x="-670" y="530" as="sourcePoint" />
            <mxPoint x="-620" y="480" as="targetPoint" />
          </mxGeometry>
        </mxCell>
        <mxCell id="Kb2x6qJlIqM13PmmgheF-89" value="ISTITUCIJA" style="rounded=0;whiteSpace=wrap;html=1;fontStyle=1;align=center;" vertex="1" parent="1">
          <mxGeometry x="-30" y="680" width="120" height="40" as="geometry" />
        </mxCell>
        <mxCell id="Kb2x6qJlIqM13PmmgheF-90" value="naziv" style="ellipse;whiteSpace=wrap;html=1;fontStyle=1;align=center;" vertex="1" parent="1">
          <mxGeometry x="130" y="650" width="80" height="40" as="geometry" />
        </mxCell>
        <mxCell id="Kb2x6qJlIqM13PmmgheF-91" value="zemja" style="ellipse;whiteSpace=wrap;html=1;fontStyle=1;align=center;" vertex="1" parent="1">
          <mxGeometry x="130" y="700" width="80" height="40" as="geometry" />
        </mxCell>
        <mxCell id="Kb2x6qJlIqM13PmmgheF-92" value="" style="endArrow=none;html=1;rounded=0;entryX=1;entryY=0.75;entryDx=0;entryDy=0;exitX=0;exitY=0.5;exitDx=0;exitDy=0;" edge="1" parent="1" source="Kb2x6qJlIqM13PmmgheF-91" target="Kb2x6qJlIqM13PmmgheF-89">
          <mxGeometry width="50" height="50" relative="1" as="geometry">
            <mxPoint x="-470" y="860" as="sourcePoint" />
            <mxPoint x="-420" y="810" as="targetPoint" />
          </mxGeometry>
        </mxCell>
        <mxCell id="Kb2x6qJlIqM13PmmgheF-93" value="" style="endArrow=none;html=1;rounded=0;entryX=1;entryY=0.25;entryDx=0;entryDy=0;exitX=0;exitY=0.5;exitDx=0;exitDy=0;" edge="1" parent="1" source="Kb2x6qJlIqM13PmmgheF-90" target="Kb2x6qJlIqM13PmmgheF-89">
          <mxGeometry width="50" height="50" relative="1" as="geometry">
            <mxPoint x="90" y="750" as="sourcePoint" />
            <mxPoint x="50" y="720" as="targetPoint" />
          </mxGeometry>
        </mxCell>
        <mxCell id="Kb2x6qJlIqM13PmmgheF-94" value="&amp;nbsp;raboti vo" style="rhombus;whiteSpace=wrap;html=1;fontStyle=1;align=center;" vertex="1" parent="1">
          <mxGeometry x="-244.5" y="720" width="60" height="60" as="geometry" />
        </mxCell>
        <mxCell id="Kb2x6qJlIqM13PmmgheF-95" value="" style="endArrow=none;html=1;rounded=0;exitX=1;exitY=0.5;exitDx=0;exitDy=0;entryX=0;entryY=0.5;entryDx=0;entryDy=0;" edge="1" parent="1" source="Kb2x6qJlIqM13PmmgheF-28" target="Kb2x6qJlIqM13PmmgheF-94">
          <mxGeometry width="50" height="50" relative="1" as="geometry">
            <mxPoint x="-240" y="600" as="sourcePoint" />
            <mxPoint x="-190" y="550" as="targetPoint" />
          </mxGeometry>
        </mxCell>
        <mxCell id="Kb2x6qJlIqM13PmmgheF-96" value="" style="endArrow=none;html=1;rounded=0;exitX=0;exitY=0.5;exitDx=0;exitDy=0;entryX=1;entryY=0.5;entryDx=0;entryDy=0;" edge="1" parent="1" source="Kb2x6qJlIqM13PmmgheF-89" target="Kb2x6qJlIqM13PmmgheF-94">
          <mxGeometry width="50" height="50" relative="1" as="geometry">
            <mxPoint x="-377" y="710" as="sourcePoint" />
            <mxPoint x="-262" y="710" as="targetPoint" />
          </mxGeometry>
        </mxCell>
        <mxCell id="Kb2x6qJlIqM13PmmgheF-97" value="M" style="text;html=1;align=center;verticalAlign=middle;whiteSpace=wrap;rounded=0;fontStyle=1" vertex="1" parent="1">
          <mxGeometry x="-282" y="720" width="60" height="30" as="geometry" />
        </mxCell>
        <mxCell id="Kb2x6qJlIqM13PmmgheF-98" value="N" style="text;html=1;align=center;verticalAlign=middle;whiteSpace=wrap;rounded=0;fontStyle=1" vertex="1" parent="1">
          <mxGeometry x="-214.75" y="720" width="60" height="30" as="geometry" />
        </mxCell>
        <mxCell id="Kb2x6qJlIqM13PmmgheF-99" value="" style="endArrow=none;html=1;rounded=0;exitX=0.976;exitY=0.674;exitDx=0;exitDy=0;entryX=0.089;entryY=0.603;entryDx=0;entryDy=0;entryPerimeter=0;exitPerimeter=0;" edge="1" parent="1" source="Kb2x6qJlIqM13PmmgheF-28" target="Kb2x6qJlIqM13PmmgheF-94">
          <mxGeometry width="50" height="50" relative="1" as="geometry">
            <mxPoint x="-377" y="710" as="sourcePoint" />
            <mxPoint x="-270" y="710" as="targetPoint" />
          </mxGeometry>
        </mxCell>
        <mxCell id="Kb2x6qJlIqM13PmmgheF-100" value="" style="endArrow=none;html=1;rounded=0;exitX=-0.022;exitY=0.644;exitDx=0;exitDy=0;entryX=0.958;entryY=0.596;entryDx=0;entryDy=0;entryPerimeter=0;exitPerimeter=0;" edge="1" parent="1" source="Kb2x6qJlIqM13PmmgheF-89" target="Kb2x6qJlIqM13PmmgheF-94">
          <mxGeometry width="50" height="50" relative="1" as="geometry">
            <mxPoint x="-380" y="717" as="sourcePoint" />
            <mxPoint x="-260" y="716" as="targetPoint" />
          </mxGeometry>
        </mxCell>
        <mxCell id="Kb2x6qJlIqM13PmmgheF-101" value="datum od" style="ellipse;whiteSpace=wrap;html=1;fontStyle=1;align=center;" vertex="1" parent="1">
          <mxGeometry x="-282" y="660" width="64.5" height="30" as="geometry" />
        </mxCell>
        <mxCell id="Kb2x6qJlIqM13PmmgheF-102" value="datum do" style="ellipse;whiteSpace=wrap;html=1;fontStyle=1;align=center;" vertex="1" parent="1">
          <mxGeometry x="-202" y="660" width="64.5" height="30" as="geometry" />
        </mxCell>
        <mxCell id="Kb2x6qJlIqM13PmmgheF-103" value="" style="endArrow=none;html=1;rounded=0;entryX=0.5;entryY=1;entryDx=0;entryDy=0;exitX=0.393;exitY=0.05;exitDx=0;exitDy=0;exitPerimeter=0;" edge="1" parent="1" source="Kb2x6qJlIqM13PmmgheF-94" target="Kb2x6qJlIqM13PmmgheF-101">
          <mxGeometry width="50" height="50" relative="1" as="geometry">
            <mxPoint x="-330" y="770" as="sourcePoint" />
            <mxPoint x="-280" y="720" as="targetPoint" />
            <Array as="points">
              <mxPoint x="-240" y="700" />
            </Array>
          </mxGeometry>
        </mxCell>
        <mxCell id="Kb2x6qJlIqM13PmmgheF-104" value="" style="endArrow=none;html=1;rounded=0;entryX=0;entryY=1;entryDx=0;entryDy=0;" edge="1" parent="1" source="Kb2x6qJlIqM13PmmgheF-94" target="Kb2x6qJlIqM13PmmgheF-102">
          <mxGeometry width="50" height="50" relative="1" as="geometry">
            <mxPoint x="-240" y="738" as="sourcePoint" />
            <mxPoint x="-237" y="700" as="targetPoint" />
          </mxGeometry>
        </mxCell>
        <mxCell id="Kb2x6qJlIqM13PmmgheF-105" value="LABORATORIJA" style="rounded=0;whiteSpace=wrap;html=1;fontStyle=1;align=center;" vertex="1" parent="1">
          <mxGeometry x="-30" y="450" width="120" height="40" as="geometry" />
        </mxCell>
        <mxCell id="Kb2x6qJlIqM13PmmgheF-106" value="naziv" style="ellipse;whiteSpace=wrap;html=1;fontStyle=1;align=center;" vertex="1" parent="1">
          <mxGeometry y="360" width="80" height="40" as="geometry" />
        </mxCell>
        <mxCell id="Kb2x6qJlIqM13PmmgheF-107" value="opis" style="ellipse;whiteSpace=wrap;html=1;fontStyle=1;align=center;" vertex="1" parent="1">
          <mxGeometry x="100" y="360" width="80" height="40" as="geometry" />
        </mxCell>
        <mxCell id="Kb2x6qJlIqM13PmmgheF-108" value="cena" style="ellipse;whiteSpace=wrap;html=1;fontStyle=1;align=center;" vertex="1" parent="1">
          <mxGeometry x="160" y="400" width="80" height="40" as="geometry" />
        </mxCell>
        <mxCell id="Kb2x6qJlIqM13PmmgheF-109" value="" style="endArrow=none;html=1;rounded=0;entryX=0.393;entryY=0.99;entryDx=0;entryDy=0;entryPerimeter=0;" edge="1" parent="1" source="Kb2x6qJlIqM13PmmgheF-105" target="Kb2x6qJlIqM13PmmgheF-106">
          <mxGeometry width="50" height="50" relative="1" as="geometry">
            <mxPoint x="-300" y="560" as="sourcePoint" />
            <mxPoint x="-250" y="510" as="targetPoint" />
          </mxGeometry>
        </mxCell>
        <mxCell id="Kb2x6qJlIqM13PmmgheF-110" value="" style="endArrow=none;html=1;rounded=0;entryX=0;entryY=1;entryDx=0;entryDy=0;" edge="1" parent="1" source="Kb2x6qJlIqM13PmmgheF-105" target="Kb2x6qJlIqM13PmmgheF-107">
          <mxGeometry width="50" height="50" relative="1" as="geometry">
            <mxPoint x="-300" y="560" as="sourcePoint" />
            <mxPoint x="-250" y="510" as="targetPoint" />
          </mxGeometry>
        </mxCell>
        <mxCell id="Kb2x6qJlIqM13PmmgheF-111" value="" style="endArrow=none;html=1;rounded=0;entryX=0;entryY=0.5;entryDx=0;entryDy=0;exitX=1;exitY=0.5;exitDx=0;exitDy=0;" edge="1" parent="1" source="Kb2x6qJlIqM13PmmgheF-105" target="Kb2x6qJlIqM13PmmgheF-108">
          <mxGeometry width="50" height="50" relative="1" as="geometry">
            <mxPoint x="-300" y="560" as="sourcePoint" />
            <mxPoint x="-250" y="510" as="targetPoint" />
          </mxGeometry>
        </mxCell>
        <mxCell id="Kb2x6qJlIqM13PmmgheF-113" value="" style="endArrow=none;html=1;rounded=0;entryX=0.5;entryY=1;entryDx=0;entryDy=0;exitX=0.5;exitY=0;exitDx=0;exitDy=0;" edge="1" parent="1" source="Kb2x6qJlIqM13PmmgheF-116" target="Kb2x6qJlIqM13PmmgheF-105">
          <mxGeometry width="50" height="50" relative="1" as="geometry">
            <mxPoint x="30" y="560" as="sourcePoint" />
            <mxPoint x="-250" y="510" as="targetPoint" />
          </mxGeometry>
        </mxCell>
        <mxCell id="Kb2x6qJlIqM13PmmgheF-116" value="" style="rhombus;whiteSpace=wrap;html=1;fontStyle=1;align=center;" vertex="1" parent="1">
          <mxGeometry x="1.25" y="550" width="57.5" height="60" as="geometry" />
        </mxCell>
        <mxCell id="Kb2x6qJlIqM13PmmgheF-117" value="" style="endArrow=none;html=1;rounded=0;entryX=0.5;entryY=1;entryDx=0;entryDy=0;exitX=0.5;exitY=0;exitDx=0;exitDy=0;" edge="1" parent="1" source="Kb2x6qJlIqM13PmmgheF-89" target="Kb2x6qJlIqM13PmmgheF-116">
          <mxGeometry width="50" height="50" relative="1" as="geometry">
            <mxPoint x="-90" y="530" as="sourcePoint" />
            <mxPoint x="-40" y="480" as="targetPoint" />
          </mxGeometry>
        </mxCell>
        <mxCell id="Kb2x6qJlIqM13PmmgheF-118" value="" style="endArrow=none;html=1;rounded=0;entryX=0.36;entryY=0.865;entryDx=0;entryDy=0;entryPerimeter=0;" edge="1" parent="1" target="Kb2x6qJlIqM13PmmgheF-116">
          <mxGeometry width="50" height="50" relative="1" as="geometry">
            <mxPoint x="22" y="680" as="sourcePoint" />
            <mxPoint x="22" y="604" as="targetPoint" />
          </mxGeometry>
        </mxCell>
        <mxCell id="Kb2x6qJlIqM13PmmgheF-119" value="" style="endArrow=none;html=1;rounded=0;entryX=0.429;entryY=1.006;entryDx=0;entryDy=0;entryPerimeter=0;exitX=0.343;exitY=0.144;exitDx=0;exitDy=0;exitPerimeter=0;" edge="1" parent="1" source="Kb2x6qJlIqM13PmmgheF-116" target="Kb2x6qJlIqM13PmmgheF-105">
          <mxGeometry width="50" height="50" relative="1" as="geometry">
            <mxPoint x="32" y="690" as="sourcePoint" />
            <mxPoint x="32" y="612" as="targetPoint" />
          </mxGeometry>
        </mxCell>
        <mxCell id="Kb2x6qJlIqM13PmmgheF-120" value="1" style="text;html=1;align=center;verticalAlign=middle;whiteSpace=wrap;rounded=0;fontStyle=1" vertex="1" parent="1">
          <mxGeometry x="30" y="599" width="60" height="30" as="geometry" />
        </mxCell>
        <mxCell id="Kb2x6qJlIqM13PmmgheF-121" value="M" style="text;html=1;align=center;verticalAlign=middle;whiteSpace=wrap;rounded=0;fontStyle=1" vertex="1" parent="1">
          <mxGeometry x="30" y="530" width="60" height="30" as="geometry" />
        </mxCell>
        <mxCell id="Kb2x6qJlIqM13PmmgheF-124" value="testiranje" style="rhombus;whiteSpace=wrap;html=1;fontStyle=1" vertex="1" parent="1">
          <mxGeometry x="-230" y="513" width="64.75" height="56" as="geometry" />
        </mxCell>
        <mxCell id="Kb2x6qJlIqM13PmmgheF-125" value="" style="endArrow=none;html=1;rounded=0;exitX=1;exitY=0;exitDx=0;exitDy=0;entryX=0;entryY=1;entryDx=0;entryDy=0;" edge="1" parent="1" source="Kb2x6qJlIqM13PmmgheF-28" target="Kb2x6qJlIqM13PmmgheF-124">
          <mxGeometry width="50" height="50" relative="1" as="geometry">
            <mxPoint x="-340" y="640" as="sourcePoint" />
            <mxPoint x="-290" y="590" as="targetPoint" />
          </mxGeometry>
        </mxCell>
        <mxCell id="Kb2x6qJlIqM13PmmgheF-126" value="" style="endArrow=none;html=1;rounded=0;entryX=1;entryY=0.5;entryDx=0;entryDy=0;exitX=0;exitY=0;exitDx=0;exitDy=0;" edge="1" parent="1" source="Kb2x6qJlIqM13PmmgheF-124" target="Kb2x6qJlIqM13PmmgheF-46">
          <mxGeometry width="50" height="50" relative="1" as="geometry">
            <mxPoint x="-340" y="640" as="sourcePoint" />
            <mxPoint x="-290" y="590" as="targetPoint" />
          </mxGeometry>
        </mxCell>
        <mxCell id="Kb2x6qJlIqM13PmmgheF-127" value="" style="endArrow=none;html=1;rounded=0;entryX=0;entryY=0.5;entryDx=0;entryDy=0;exitX=1;exitY=0;exitDx=0;exitDy=0;" edge="1" parent="1" source="Kb2x6qJlIqM13PmmgheF-124" target="Kb2x6qJlIqM13PmmgheF-105">
          <mxGeometry width="50" height="50" relative="1" as="geometry">
            <mxPoint x="-340" y="640" as="sourcePoint" />
            <mxPoint x="-290" y="590" as="targetPoint" />
          </mxGeometry>
        </mxCell>
        <mxCell id="Kb2x6qJlIqM13PmmgheF-128" value="" style="endArrow=none;html=1;rounded=0;entryX=0.5;entryY=0;entryDx=0;entryDy=0;exitX=0.371;exitY=0.954;exitDx=0;exitDy=0;exitPerimeter=0;fontStyle=1" edge="1" parent="1" source="Kb2x6qJlIqM13PmmgheF-129" target="Kb2x6qJlIqM13PmmgheF-124">
          <mxGeometry width="50" height="50" relative="1" as="geometry">
            <mxPoint x="-190" y="480" as="sourcePoint" />
            <mxPoint x="-290" y="590" as="targetPoint" />
          </mxGeometry>
        </mxCell>
        <mxCell id="Kb2x6qJlIqM13PmmgheF-129" value="datum" style="ellipse;whiteSpace=wrap;html=1;fontStyle=1" vertex="1" parent="1">
          <mxGeometry x="-230" y="450" width="50" height="30" as="geometry" />
        </mxCell>
        <mxCell id="Kb2x6qJlIqM13PmmgheF-131" value="casovi" style="ellipse;whiteSpace=wrap;html=1;fontStyle=1" vertex="1" parent="1">
          <mxGeometry x="-165.25" y="450" width="50" height="30" as="geometry" />
        </mxCell>
        <mxCell id="Kb2x6qJlIqM13PmmgheF-132" value="" style="endArrow=none;html=1;rounded=0;exitX=0;exitY=1;exitDx=0;exitDy=0;entryX=0.5;entryY=0;entryDx=0;entryDy=0;fontStyle=1" edge="1" parent="1" source="Kb2x6qJlIqM13PmmgheF-131" target="Kb2x6qJlIqM13PmmgheF-124">
          <mxGeometry width="50" height="50" relative="1" as="geometry">
            <mxPoint x="-201" y="489" as="sourcePoint" />
            <mxPoint x="-190" y="510" as="targetPoint" />
          </mxGeometry>
        </mxCell>
        <mxCell id="Kb2x6qJlIqM13PmmgheF-134" value="M" style="text;html=1;align=center;verticalAlign=middle;whiteSpace=wrap;rounded=0;fontStyle=1" vertex="1" parent="1">
          <mxGeometry x="-250" y="560" width="60" height="30" as="geometry" />
        </mxCell>
        <mxCell id="Kb2x6qJlIqM13PmmgheF-135" value="N" style="text;html=1;align=center;verticalAlign=middle;whiteSpace=wrap;rounded=0;fontStyle=1" vertex="1" parent="1">
          <mxGeometry x="-175.25" y="520" width="60" height="30" as="geometry" />
        </mxCell>
        <mxCell id="Kb2x6qJlIqM13PmmgheF-136" value="&lt;b&gt;P&lt;/b&gt;" style="text;html=1;align=center;verticalAlign=middle;whiteSpace=wrap;rounded=0;" vertex="1" parent="1">
          <mxGeometry x="-262" y="500" width="60" height="30" as="geometry" />
        </mxCell>
        <mxCell id="Kb2x6qJlIqM13PmmgheF-137" value="" style="rounded=0;whiteSpace=wrap;html=1;fillColor=none;" vertex="1" parent="1">
          <mxGeometry x="-519.12" y="287.5" width="149.25" height="65" as="geometry" />
        </mxCell>
        <mxCell id="Kb2x6qJlIqM13PmmgheF-139" value="" style="rhombus;whiteSpace=wrap;html=1;fillColor=none;" vertex="1" parent="1">
          <mxGeometry x="-487" y="163.75" width="84.5" height="77.5" as="geometry" />
        </mxCell>
      </root>
    </mxGraphModel>
  </diagram>
</mxfile>
